<?xml version="1.0" encoding="utf-8"?>
<!-- Generator: Adobe Illustrator 22.0.0, SVG Export Plug-In . SVG Version: 6.00 Build 0)  -->
<svg version="1.1" id="Layer_1" xmlns="http://www.w3.org/2000/svg" xmlns:xlink="http://www.w3.org/1999/xlink" x="0px" y="0px"
	 viewBox="0 0 22.9 24.3" style="enable-background:new 0 0 22.9 24.3;" xml:space="preserve">
<style type="text/css">
	.st0{fill:#CDCDCD;}
</style>
<path class="st0" d="M11.5,16.1l7.4,7.6c0.4,0.4,0.7,0.6,1,0.6s0.6-0.2,1-0.6l1.5-1.5c0.4-0.4,0.5-0.7,0.6-1s-0.2-0.6-0.6-1l-7.9-8
	l7.9-8c0.4-0.4,0.6-0.7,0.6-1s-0.2-0.6-0.6-1l-1.5-1.5c-0.4-0.4-0.7-0.6-1-0.6s-0.6,0.2-1,0.6l-7.4,7.6L4.1,0.6C3.7,0.2,3.4,0,3.1,0
	c-0.3,0-0.6,0.2-1,0.6L0.6,2.1C0.2,2.5,0,2.8,0,3.1s0.2,0.6,0.6,1l7.9,8l-7.9,8c-0.4,0.4-0.6,0.7-0.6,1c0,0.3,0.2,0.6,0.6,1l1.5,1.5
	c0.4,0.4,0.7,0.6,1,0.6c0.3,0,0.6-0.2,1-0.6L11.5,16.1z"/>
</svg>
