<?xml version="1.0" encoding="utf-8"?>
<!-- Generator: Adobe Illustrator 22.0.0, SVG Export Plug-In . SVG Version: 6.00 Build 0)  -->
<svg version="1.1" id="mnemonic" xmlns="http://www.w3.org/2000/svg" xmlns:xlink="http://www.w3.org/1999/xlink" x="0px" y="0px"
	 viewBox="0 0 240 234" style="enable-background:new 0 0 240 234;" xml:space="preserve">
<style type="text/css">
	.st0{fill:#FFFFFF;}
</style>
<g>
	<path class="st0" d="M34.5,61.5L0,117l34.5,55.5h54.8L54.9,117l34.4-55.5H34.5z M209.1,0H144l-30.8,48h65.2l30.6,55.2L240,55.1
		L209.1,0z M109.5,182.2l27.6,51.8h65.1l30.9-51.6l-27.4-51.6l-30.9,51.4H109.5z M99.5,65.4L68.5,117l30.9,51.8l30.8-51.8L99.5,65.4
		z M198.8,120h-58l-31.2,52.5H168L198.8,120z M198.8,110.2L168,58.5h-58.4l31.4,51.8H198.8z"/>
</g>
</svg>
